<?xml version="1.0" encoding="utf-8"?>
<!-- Generator: Adobe Illustrator 27.2.0, SVG Export Plug-In . SVG Version: 6.00 Build 0)  -->
<svg version="1.1" id="Слой_1" xmlns="http://www.w3.org/2000/svg" xmlns:xlink="http://www.w3.org/1999/xlink" x="0px" y="0px"
	 viewBox="0 0 532.91 756.28" style="enable-background:new 0 0 532.91 756.28;" xml:space="preserve">
<style type="text/css">
	.st0{fill:#fd2155;}
</style>
<g>
	<g>
		<path class="st0" d="M98.8,9.57h-3.71c-46.15,0-83.56,40.11-83.56,89.58v329.93c0,72.91,55.13,132.02,123.14,132.02h48.34V99.86
			C183.01,49.99,145.31,9.57,98.8,9.57z"/>
		<g>
			<path class="st0" d="M98.8,2.07c-17.22,0-33.71,3.57-48.57,12.58C34.6,24.13,21.86,38.42,14.04,54.93
				c-8.12,17.14-10,35.05-10,53.65c0,40.43,0,80.85,0,121.28c0,50.64,0,101.28,0,151.92c0,14.11,0,28.22,0,42.33
				c0,23.26,3.86,45.74,13.62,67c15.23,33.16,43.82,59.82,78.56,71.35c25,8.3,51.95,6.15,77.9,6.15c2.97,0,5.93,0,8.9,0
				c4.05,0,7.5-3.44,7.5-7.5c0-20.03,0-40.07,0-60.1c0-45.88,0-91.75,0-137.63c0-50.23,0-100.46,0-150.69c0-33.62,0-67.24,0-100.87
				c0-9.71,0.08-19.21-1.42-28.88c-5.46-35.17-30.59-66.44-64.88-77.06C116.02,3.34,107.37,2.14,98.8,2.07
				c-9.65-0.08-9.66,14.92,0,15c33.73,0.28,62.47,24,72.52,55.72c3.75,11.85,4.19,23.72,4.19,35.94c0,31.21,0,62.42,0,93.62
				c0,49.03,0,98.07,0,147.1c0,46.53,0,93.05,0,139.58c0,15.97,0,31.93,0,47.9c0,7.61-0.67,15.56,0,23.14c0.03,0.34,0,0.69,0,1.02
				c2.5-2.5,5-5,7.5-7.5c-19.14,0-38.67,1.17-57.77-0.38c-33.67-2.73-64.56-22.29-83.47-49.96c-15.4-22.52-22.72-48.84-22.74-76
				c-0.01-11.26,0-22.52,0-33.79c0-47.28,0-94.57,0-141.85c0-43.84,0-87.69,0-131.53c0-8.41-0.27-16.88,0.1-25.28
				c1.51-34.52,24.71-67.11,58.89-75.66c6.88-1.72,13.72-2.08,20.78-2.08C108.45,17.07,108.47,2.07,98.8,2.07z"/>
		</g>
	</g>
	<g>
		<path class="st0" d="M437.39,561.1H183.01v51.69c0,72.99,55.19,132.15,123.26,132.15h130.9c46.87,0,84.87-40.74,84.87-90.99v-2.11
			C522.04,601.73,484.14,561.1,437.39,561.1z"/>
		<g>
			<path class="st0" d="M437.39,553.6c-28.64,0-57.28,0-85.91,0c-45.66,0-91.32,0-136.97,0c-10.5,0-20.99,0-31.49,0
				c-4.05,0-7.5,3.44-7.5,7.5c0,15.76,0,31.53,0,47.29c0,25.34,4.81,49.91,16.59,72.52c12.94,24.85,33.7,46.02,58.9,58.46
				c18.79,9.27,38.78,13.07,59.61,13.07c35.68,0,71.36,0,107.03,0c13.77,0,27.68,0.71,41.16-2.72
				c27.48-6.98,50.43-27.66,61.75-53.46c11.84-27,12.06-58.61,0.41-85.72c-11.22-26.09-34.08-47.08-61.8-54.19
				C452.07,554.54,444.7,553.66,437.39,553.6c-9.65-0.08-9.66,14.92,0,15c26.15,0.22,49.96,14.41,63.8,36.44
				c13.91,22.14,17.03,50.37,9.41,75.29c-7.47,24.42-26.23,45.52-50.8,53.49c-12.49,4.05-25.05,3.62-37.94,3.62
				c-35.08,0-70.16,0-105.23,0c-14.86,0-29.26-0.63-43.62-5.22c-24.46-7.82-45.76-24.52-60.11-45.72
				c-14.79-21.86-22.29-47.6-22.39-73.94c-0.06-15.49,0-30.98,0-46.47c0-1.67,0-3.33,0-5c-2.5,2.5-5,5-7.5,7.5
				c28.64,0,57.28,0,85.91,0c45.66,0,91.32,0,136.97,0c10.5,0,20.99,0,31.49,0C447.04,568.6,447.06,553.6,437.39,553.6z"/>
		</g>
	</g>
</g>
</svg>
