<?xml version="1.0" encoding="utf-8"?>
<!-- Generator: Adobe Illustrator 27.2.0, SVG Export Plug-In . SVG Version: 6.00 Build 0)  -->
<svg version="1.1" id="Слой_1" xmlns="http://www.w3.org/2000/svg" xmlns:xlink="http://www.w3.org/1999/xlink" x="0px" y="0px"
	 viewBox="0 0 532.91 756.28" style="enable-background:new 0 0 532.91 756.28;" xml:space="preserve">
<style type="text/css">
	.st0{fill:rgb(253, 33, 85);}
</style>
<g>
	<g>
		<path class="st0" d="M86.7,9.57h-3.19c-39.75,0-71.97,40.11-71.97,89.58v329.93c0,72.91,47.49,132.02,106.07,132.02h41.64V99.86
			C159.24,49.99,126.77,9.57,86.7,9.57z"/>
		<g>
			<path class="st0" d="M86.7,2.07c-16.12,0-31.29,4.22-44.3,13.99C27.87,26.98,17.56,42.08,11.15,58.98
				c-6.17,16.28-7.12,33.2-7.12,50.33c0,39.2,0,78.4,0,117.6c0,49.64,0,99.28,0,148.92c0,33.31-2.76,68.58,6.77,100.85
				c9.86,33.4,31.42,65.19,63.09,81.22c13.77,6.97,28.77,10.63,44.2,10.7c10.55,0.05,21.1,0,31.65,0c3.17,0,6.33,0,9.5,0
				c4.05,0,7.5-3.44,7.5-7.5c0-19.69,0-39.37,0-59.06c0-45.23,0-90.47,0-135.7c0-50.05,0-100.1,0-150.15c0-34.13,0-68.26,0-102.4
				c0-7.45,0.24-14.98-0.32-22.41c-2.65-35.45-21.64-71.63-56.16-84.99C102.78,3.5,94.72,2.16,86.7,2.07c-9.66-0.1-9.66,14.9,0,15
				c34.35,0.36,56.98,31.95,63.17,62.94c2.03,10.15,1.87,20.35,1.87,30.62c0,31.85,0,63.71,0,95.56c0,48.75,0,97.5,0,146.25
				c0,45.9,0,91.81,0,137.71c0,15.75,0,31.5,0,47.26c0,7.45-0.65,15.24,0,22.67c0.03,0.34,0,0.69,0,1.02c2.5-2.5,5-5,7.5-7.5
				c-9.37,0-18.74,0-28.11,0c-9.97,0-20,0.44-29.81-1.68c-32.09-6.94-56.1-32.22-69.41-61.24c-9.51-20.72-12.88-43.18-12.88-65.8
				c0-12.48,0-24.96,0-37.43c0-46.43,0-92.87,0-139.3c0-42.33,0-84.66,0-126.99c0-7.33-0.04-14.66,0-21.99
				c0.17-31.83,15.78-69.06,48.48-79.53c6.35-2.03,12.57-2.55,19.19-2.55C96.36,17.07,96.37,2.07,86.7,2.07z"/>
		</g>
	</g>
	<g>
		<path class="st0" d="M378.36,561.1H159.24v51.69c0,72.99,47.54,132.15,106.18,132.15h112.75c40.37,0,73.1-40.74,73.1-90.99v-2.11
			C451.28,601.73,418.63,561.1,378.36,561.1z"/>
		<g>
			<path class="st0" d="M378.36,553.6c-24.72,0-49.45,0-74.17,0c-39.24,0-78.48,0-117.72,0c-9.08,0-18.16,0-27.23,0
				c-4.05,0-7.5,3.44-7.5,7.5c0,36.89-2.95,74.95,10.41,110.12c16.87,44.4,55.01,81.16,104.62,81.23c31.63,0.05,63.26,0,94.89,0
				c13.13,0,26.3,0.69,38.89-3.85c25.34-9.14,43.11-31.32,51.86-56.22c17.24-49.07-0.38-120.49-55.76-136.23
				C390.73,554.47,384.51,553.67,378.36,553.6c-9.66-0.1-9.66,14.9,0,15c23.17,0.24,42.21,15.4,53.25,34.96
				c12.37,21.94,15.23,49.37,9.56,73.78c-5.35,23.01-19.19,45.43-41.33,55.46c-11.2,5.08-22.77,4.64-34.69,4.64
				c-31.36,0-62.73,0-94.09,0c-14.83,0-28.97-2.06-42.36-8.94c-21.05-10.82-36.88-29.31-47.28-50.32
				c-10.32-20.84-14.65-43.97-14.67-67.11c-0.01-15.19,0-30.39,0-45.58c0-1.47,0-2.93,0-4.4c-2.5,2.5-5,5-7.5,7.5
				c24.72,0,49.45,0,74.17,0c39.24,0,78.48,0,117.72,0c9.08,0,18.16,0,27.23,0C388.01,568.6,388.03,553.6,378.36,553.6z"/>
		</g>
	</g>
</g>
</svg>
