<?xml version="1.0" encoding="utf-8"?>
<!-- Generator: Adobe Illustrator 27.2.0, SVG Export Plug-In . SVG Version: 6.00 Build 0)  -->
<svg version="1.1" id="Слой_1" xmlns="http://www.w3.org/2000/svg" xmlns:xlink="http://www.w3.org/1999/xlink" x="0px" y="0px"
	 viewBox="0 0 600 800" style="enable-background:new 0 0 600 800;" xml:space="preserve">
<style type="text/css">
	.st0{fill:#E6007E;}
</style>
<g>
	<g>
		<path class="st0" d="M139.81,94.98h-3.71c-46.15,0-83.56,34.26-83.56,76.52v281.82c0,62.28,55.13,112.77,123.14,112.77h48.34v-394
			C224.02,129.51,186.32,94.98,139.81,94.98z"/>
		<g>
			<path class="st0" d="M139.81,87.48c-32.81,0-64.58,13.51-82.56,41.98c-9.51,15.06-12.2,31.73-12.2,49.13
				c0,36.16,0,72.31,0,108.47c0,44.14,0,88.28,0,132.42c0,10.76-0.01,21.52,0,32.28c0.03,24.51,7.39,48.46,21.96,68.28
				c19.72,26.81,49.68,45.12,82.39,51.1c21.99,4.02,45.01,2.46,67.26,2.46c2.46,0,4.91,0,7.37,0c4.05,0,7.5-3.44,7.5-7.5
				c0-17.43,0-34.86,0-52.28c0-39.76,0-79.52,0-119.28c0-43.31,0-86.62,0-129.92c0-28.07,0-56.14,0-84.22c0-10.49-0.24-20.8-3.34-31
				c-8.92-29.36-34.36-51.37-63.77-58.84C156.4,88.53,148.08,87.55,139.81,87.48c-9.65-0.08-9.66,14.92,0,15
				c29.35,0.23,57.81,15.52,70.71,42.52c5.08,10.62,6.01,21.83,6.01,33.33c0,26.07,0,52.14,0,78.21c0,42.02,0,84.04,0,126.06
				c0,40.34,0,80.67,0,121.01c0,13.79,0,27.58,0,41.37c0,6.63-0.65,13.62,0,20.23c0.03,0.3,0,0.61,0,0.9c2.5-2.5,5-5,7.5-7.5
				c-16.08,0-32.15,0.07-48.23,0c-30.61-0.14-60.92-10.98-83.31-32.17c-20.24-19.16-32.3-45.3-32.44-73.28
				c-0.04-7.95,0-15.9,0-23.85c0-40.96,0-81.92,0-122.88c0-39.09,0-78.17,0-117.26c0-8.43-0.6-17.26,0.45-25.65
				c3.86-30.92,30.19-53.65,59.72-59.54c6.49-1.29,13-1.49,19.59-1.49C149.46,102.48,149.48,87.48,139.81,87.48z"/>
		</g>
	</g>
	<g>
		<path class="st0" d="M478.4,566.1H224.02v44.15c0,62.34,55.19,112.88,123.26,112.88h130.9c46.87,0,84.87-34.8,84.87-77.72v-1.8
			C563.05,600.81,525.15,566.1,478.4,566.1z"/>
		<g>
			<path class="st0" d="M478.4,558.6c-28.64,0-57.28,0-85.91,0c-45.66,0-91.32,0-136.97,0c-10.5,0-20.99,0-31.49,0
				c-4.05,0-7.5,3.44-7.5,7.5c0,14.27-0.02,28.54,0,42.81c0.03,24,7.18,47.52,21.22,67.07c16.05,22.35,39.01,38.74,65.04,47.5
				c16.86,5.67,34.27,7.16,51.92,7.16c34.52,0,69.05,0,103.57,0c12.55,0,25.19,0.53,37.61-1.6c26.67-4.57,51.56-21.12,64.66-45.01
				c12.71-23.19,13.25-51.76,1.78-75.52c-11.77-24.38-35.95-41.76-62.13-47.51C493.05,559.43,485.71,558.66,478.4,558.6
				c-9.65-0.07-9.66,14.93,0,15c24.61,0.19,49.31,10.8,64.09,30.98c13.73,18.74,17.09,44,8.17,65.57
				c-9.41,22.76-30.96,38.43-54.63,43.62c-11.2,2.46-22.79,1.87-34.19,1.87c-33.41,0-66.83,0-100.24,0
				c-12.26,0-24.52,0.29-36.65-1.93c-24.88-4.56-48.12-16.43-65.56-34.87c-16.35-17.28-26.69-40.04-27.77-63.9
				c-0.66-14.58-0.11-29.27-0.11-43.86c0-1.66,0-3.32,0-4.98c-2.5,2.5-5,5-7.5,7.5c28.64,0,57.28,0,85.91,0
				c45.66,0,91.32,0,136.97,0c10.5,0,20.99,0,31.49,0C488.05,573.6,488.07,558.6,478.4,558.6z"/>
		</g>
	</g>
</g>
</svg>
